ffmpeg started on 2025-07-06 at 17:35:45
Report written to "D:\Convert\FFMetrics\reports\ssim_report-6.txt"
Log level: 32
Command line:
ffmpeg -hide_banner -nostdin -i "G:\\\xc0\xed\xe8\xec\xe5\\\xce\xed\xe3\xee\xe8\xed\xe3\xe8\\!_37_\xc7\xe8\xec\xe0_2025\\JamClub\\\xc3\xee\xeb\xf3\xe1\xe0\xff \xf8\xea\xe0\xf2\xf3\xeb\xea\xe0\\JamClub_Ao_no_Hako_05_1080p_HEVC.mkv" -i "G:\\\xc0\xed\xe8\xec\xe5\\\xce\xed\xe3\xee\xe8\xed\xe3\xe8\\!_37_\xc7\xe8\xec\xe0_2025\\JamClub\\\xc3\xee\xeb\xf3\xe1\xe0\xff \xf8\xea\xe0\xf2\xf3\xeb\xea\xe0\\JamClub_Ao_no_Hako_05_1080p.mp4" -lavfi "[0:v]settb=AVTB,setpts=PTS-STARTPTS,format=pix_fmts=yuv420p10,fps=24000/1001,scale=1920:1080:flags=bicubic[main];[1:v]settb=AVTB,setpts=PTS-STARTPTS,format=pix_fmts=yuv420p,fps=24000/1001,scale=1920:1080:flags=bicubic[ref];[main][ref]ssim=eof_action=endall:stats_file='D\\:/Convert/FFMetrics/logs/ssim_logfile-6.txt'" -f null -
Input #0, matroska,webm, from 'G:\Аниме\Онгоинги\!_37_Зима_2025\JamClub\Голубая шкатулка\JamClub_Ao_no_Hako_05_1080p_HEVC.mkv':
  Metadata:
    COMPATIBLE_BRANDS: isomiso2avc1mp41
    MAJOR_BRAND     : isom
    MINOR_VERSION   : 512
    ENCODER         : Lavf61.7.100
  Duration: 00:23:59.38, start: -0.001000, bitrate: 1365 kb/s
  Stream #0:0: Video: hevc (Main 10), yuv420p10le(tv, bt709, progressive), 1920x1080 [SAR 1:1 DAR 16:9], 23.98 fps, 23.98 tbr, 1k tbn (default)
      Metadata:
        HANDLER_NAME    : VideoHandler
        VENDOR_ID       : [0][0][0][0]
        ENCODER         : Lavc61.19.100 libx265
        BPS             : 1168333
        DURATION        : 00:23:59.312708333
        NUMBER_OF_FRAMES: 34509
        NUMBER_OF_BYTES : 210199640
        _STATISTICS_WRITING_APP: mkvpropedit v66.0.0 ('Josie') 64-bit
        _STATISTICS_WRITING_DATE_UTC: 2025-07-03 15:30:52
        _STATISTICS_TAGS: BPS DURATION NUMBER_OF_FRAMES NUMBER_OF_BYTES
  Stream #0:1(eng): Audio: aac (LC), 48000 Hz, stereo, fltp (default)
      Metadata:
        HANDLER_NAME    : SoundHandler
        VENDOR_ID       : [0][0][0][0]
        ENCODER         : Lavc61.19.100 aac
        BPS             : 193378
        DURATION        : 00:23:59.341000000
        NUMBER_OF_FRAMES: 67470
        NUMBER_OF_BYTES : 34792118
        _STATISTICS_WRITING_APP: mkvpropedit v66.0.0 ('Josie') 64-bit
        _STATISTICS_WRITING_DATE_UTC: 2025-07-03 15:30:52
        _STATISTICS_TAGS: BPS DURATION NUMBER_OF_FRAMES NUMBER_OF_BYTES
Input #1, mov,mp4,m4a,3gp,3g2,mj2, from 'G:\Аниме\Онгоинги\!_37_Зима_2025\JamClub\Голубая шкатулка\JamClub_Ao_no_Hako_05_1080p.mp4':
  Metadata:
    major_brand     : isom
    minor_version   : 512
    compatible_brands: isomiso2avc1mp41
    encoder         : Lavf60.16.100
  Duration: 00:23:59.36, start: 0.000000, bitrate: 4216 kb/s
  Stream #1:0[0x1](und): Video: h264 (High) (avc1 / 0x31637661), yuv420p(progressive), 1920x1080 [SAR 1:1 DAR 16:9], 4018 kb/s, 23.98 fps, 23.98 tbr, 90k tbn (default)
      Metadata:
        handler_name    : VideoHandler
        vendor_id       : [0][0][0][0]
  Stream #1:1[0x2](eng): Audio: aac (LC) (mp4a / 0x6134706D), 48000 Hz, stereo, fltp, 191 kb/s (default)
      Metadata:
        handler_name    : SoundHandler
        vendor_id       : [0][0][0][0]
Stream mapping:
  Stream #0:0 (hevc) -> settb:default
  Stream #1:0 (h264) -> settb:default
  ssim:default -> Stream #0:0 (wrapped_avframe)
  Stream #0:1 -> #0:1 (aac (native) -> pcm_s16le (native))
Output #0, null, to 'pipe:':
  Metadata:
    COMPATIBLE_BRANDS: isomiso2avc1mp41
    MAJOR_BRAND     : isom
    MINOR_VERSION   : 512
    encoder         : Lavf61.7.100
  Stream #0:0: Video: wrapped_avframe, yuv420p10le(tv, bt709, progressive), 1920x1080 [SAR 1:1 DAR 16:9], q=2-31, 200 kb/s, 23.98 fps, 23.98 tbn
      Metadata:
        encoder         : Lavc61.19.100 wrapped_avframe
  Stream #0:1(eng): Audio: pcm_s16le, 48000 Hz, stereo, s16, 1536 kb/s (default)
      Metadata:
        HANDLER_NAME    : SoundHandler
        VENDOR_ID       : [0][0][0][0]
        _STATISTICS_TAGS: BPS DURATION NUMBER_OF_FRAMES NUMBER_OF_BYTES
        BPS             : 193378
        DURATION        : 00:23:59.341000000
        NUMBER_OF_FRAMES: 67470
        NUMBER_OF_BYTES : 34792118
        _STATISTICS_WRITING_APP: mkvpropedit v66.0.0 ('Josie') 64-bit
        _STATISTICS_WRITING_DATE_UTC: 2025-07-03 15:30:52
        encoder         : Lavc61.19.100 pcm_s16le
frame=  105 fps=0.0 q=-0.0 size=N/A time=00:00:04.37 bitrate=N/A speed=8.44x    frame=  252 fps=244 q=-0.0 size=N/A time=00:00:10.51 bitrate=N/A speed=10.2x    frame=  430 fps=279 q=-0.0 size=N/A time=00:00:17.93 bitrate=N/A speed=11.6x    frame=  655 fps=317 q=-0.0 size=N/A time=00:00:27.31 bitrate=N/A speed=13.2x    frame=  866 fps=336 q=-0.0 size=N/A time=00:00:36.11 bitrate=N/A speed=  14x    frame= 1083 fps=350 q=-0.0 size=N/A time=00:00:45.17 bitrate=N/A speed=14.6x    frame= 1294 fps=359 q=-0.0 size=N/A time=00:00:53.97 bitrate=N/A speed=  15x    frame= 1497 fps=362 q=-0.0 size=N/A time=00:01:02.43 bitrate=N/A speed=15.1x    frame= 1711 fps=369 q=-0.0 size=N/A time=00:01:11.36 bitrate=N/A speed=15.4x    frame= 1931 fps=375 q=-0.0 size=N/A time=00:01:20.53 bitrate=N/A speed=15.6x    frame= 2126 fps=375 q=-0.0 size=N/A time=00:01:28.67 bitrate=N/A speed=15.7x    frame= 2325 fps=375 q=-0.0 size=N/A time=00:01:36.97 bitrate=N/A speed=15.7x    frame= 2528 fps=377 q=-0.0 size=N/A time=00:01:45.43 bitrate=N/A speed=15.7x    frame= 2721 fps=377 q=-0.0 size=N/A time=00:01:53.48 bitrate=N/A speed=15.7x    frame= 2927 fps=378 q=-0.0 size=N/A time=00:02:02.08 bitrate=N/A speed=15.8x    frame= 3162 fps=383 q=-0.0 size=N/A time=00:02:11.88 bitrate=N/A speed=  16x    frame= 3329 fps=380 q=-0.0 size=N/A time=00:02:18.84 bitrate=N/A speed=15.8x    frame= 3511 fps=378 q=-0.0 size=N/A time=00:02:26.43 bitrate=N/A speed=15.8x    frame= 3724 fps=380 q=-0.0 size=N/A time=00:02:35.32 bitrate=N/A speed=15.8x    frame= 3959 fps=384 q=-0.0 size=N/A time=00:02:45.12 bitrate=N/A speed=  16x    frame= 4200 fps=388 q=-0.0 size=N/A time=00:02:55.17 bitrate=N/A speed=16.2x    frame= 4412 fps=389 q=-0.0 size=N/A time=00:03:04.01 bitrate=N/A speed=16.2x    frame= 4640 fps=391 q=-0.0 size=N/A time=00:03:13.52 bitrate=N/A speed=16.3x    frame= 4875 fps=394 q=-0.0 size=N/A time=00:03:23.32 bitrate=N/A speed=16.4x    frame= 5152 fps=400 q=-0.0 size=N/A time=00:03:34.88 bitrate=N/A speed=16.7x    frame= 5410 fps=404 q=-0.0 size=N/A time=00:03:45.64 bitrate=N/A speed=16.8x    frame= 5678 fps=408 q=-0.0 size=N/A time=00:03:56.81 bitrate=N/A speed=  17x    frame= 5948 fps=412 q=-0.0 size=N/A time=00:04:08.08 bitrate=N/A speed=17.2x    frame= 6199 fps=415 q=-0.0 size=N/A time=00:04:18.54 bitrate=N/A speed=17.3x    frame= 6452 fps=417 q=-0.0 size=N/A time=00:04:29.10 bitrate=N/A speed=17.4x    frame= 6712 fps=420 q=-0.0 size=N/A time=00:04:39.94 bitrate=N/A speed=17.5x    frame= 6929 fps=420 q=-0.0 size=N/A time=00:04:48.99 bitrate=N/A speed=17.5x    frame= 7162 fps=421 q=-0.0 size=N/A time=00:04:58.71 bitrate=N/A speed=17.6x    frame= 7409 fps=422 q=-0.0 size=N/A time=00:05:09.01 bitrate=N/A speed=17.6x    frame= 7670 fps=425 q=-0.0 size=N/A time=00:05:19.90 bitrate=N/A speed=17.7x    frame= 7900 fps=426 q=-0.0 size=N/A time=00:05:29.49 bitrate=N/A speed=17.8x    frame= 8153 fps=427 q=-0.0 size=N/A time=00:05:40.04 bitrate=N/A speed=17.8x    frame= 8408 fps=429 q=-0.0 size=N/A time=00:05:50.68 bitrate=N/A speed=17.9x    frame= 8667 fps=431 q=-0.0 size=N/A time=00:06:01.48 bitrate=N/A speed=  18x    frame= 8923 fps=433 q=-0.0 size=N/A time=00:06:12.16 bitrate=N/A speed=  18x    frame= 9152 fps=433 q=-0.0 size=N/A time=00:06:21.71 bitrate=N/A speed=18.1x    frame= 9394 fps=434 q=-0.0 size=N/A time=00:06:31.80 bitrate=N/A speed=18.1x    frame= 9640 fps=435 q=-0.0 size=N/A time=00:06:42.06 bitrate=N/A speed=18.1x    frame= 9867 fps=435 q=-0.0 size=N/A time=00:06:51.53 bitrate=N/A speed=18.1x    frame=10106 fps=435 q=-0.0 size=N/A time=00:07:01.50 bitrate=N/A speed=18.2x    frame=10375 fps=437 q=-0.0 size=N/A time=00:07:12.72 bitrate=N/A speed=18.2x    frame=10617 fps=438 q=-0.0 size=N/A time=00:07:22.81 bitrate=N/A speed=18.3x    frame=10868 fps=439 q=-0.0 size=N/A time=00:07:33.28 bitrate=N/A speed=18.3x    frame=11131 fps=440 q=-0.0 size=N/A time=00:07:44.25 bitrate=N/A speed=18.4x    frame=11362 fps=440 q=-0.0 size=N/A time=00:07:53.89 bitrate=N/A speed=18.4x    frame=11568 fps=440 q=-0.0 size=N/A time=00:08:02.48 bitrate=N/A speed=18.3x    frame=11794 fps=440 q=-0.0 size=N/A time=00:08:11.90 bitrate=N/A speed=18.3x    frame=12018 fps=439 q=-0.0 size=N/A time=00:08:21.25 bitrate=N/A speed=18.3x    frame=12261 fps=440 q=-0.0 size=N/A time=00:08:31.38 bitrate=N/A speed=18.4x    frame=12478 fps=440 q=-0.0 size=N/A time=00:08:40.43 bitrate=N/A speed=18.3x    frame=12697 fps=440 q=-0.0 size=N/A time=00:08:49.57 bitrate=N/A speed=18.3x    frame=12878 fps=438 q=-0.0 size=N/A time=00:08:57.11 bitrate=N/A speed=18.3x    frame=13093 fps=438 q=-0.0 size=N/A time=00:09:06.08 bitrate=N/A speed=18.3x    frame=13287 fps=437 q=-0.0 size=N/A time=00:09:14.17 bitrate=N/A speed=18.2x    frame=13498 fps=436 q=-0.0 size=N/A time=00:09:22.97 bitrate=N/A speed=18.2x    frame=13745 fps=437 q=-0.0 size=N/A time=00:09:33.28 bitrate=N/A speed=18.2x    frame=13980 fps=437 q=-0.0 size=N/A time=00:09:43.08 bitrate=N/A speed=18.2x    frame=14158 fps=436 q=-0.0 size=N/A time=00:09:50.50 bitrate=N/A speed=18.2x    frame=14381 fps=435 q=-0.0 size=N/A time=00:09:59.80 bitrate=N/A speed=18.2x    frame=14571 fps=435 q=-0.0 size=N/A time=00:10:07.73 bitrate=N/A speed=18.1x    frame=14796 fps=435 q=-0.0 size=N/A time=00:10:17.11 bitrate=N/A speed=18.1x    frame=14975 fps=433 q=-0.0 size=N/A time=00:10:24.58 bitrate=N/A speed=18.1x    frame=15214 fps=434 q=-0.0 size=N/A time=00:10:34.55 bitrate=N/A speed=18.1x    frame=15415 fps=433 q=-0.0 size=N/A time=00:10:42.93 bitrate=N/A speed=18.1x    frame=15611 fps=432 q=-0.0 size=N/A time=00:10:51.10 bitrate=N/A speed=  18x    frame=15827 fps=432 q=-0.0 size=N/A time=00:11:00.11 bitrate=N/A speed=  18x    frame=16058 fps=432 q=-0.0 size=N/A time=00:11:09.75 bitrate=N/A speed=  18x    frame=16284 fps=432 q=-0.0 size=N/A time=00:11:19.17 bitrate=N/A speed=  18x    frame=16497 fps=432 q=-0.0 size=N/A time=00:11:28.06 bitrate=N/A speed=  18x    frame=16722 fps=432 q=-0.0 size=N/A time=00:11:37.44 bitrate=N/A speed=  18x    frame=16931 fps=432 q=-0.0 size=N/A time=00:11:46.16 bitrate=N/A speed=  18x    frame=17156 fps=432 q=-0.0 size=N/A time=00:11:55.54 bitrate=N/A speed=  18x    frame=17364 fps=432 q=-0.0 size=N/A time=00:12:04.22 bitrate=N/A speed=  18x    frame=17588 fps=432 q=-0.0 size=N/A time=00:12:13.56 bitrate=N/A speed=  18x    frame=17831 fps=432 q=-0.0 size=N/A time=00:12:23.70 bitrate=N/A speed=  18x    frame=18060 fps=432 q=-0.0 size=N/A time=00:12:33.25 bitrate=N/A speed=  18x    frame=18277 fps=432 q=-0.0 size=N/A time=00:12:42.30 bitrate=N/A speed=  18x    frame=18475 fps=431 q=-0.0 size=N/A time=00:12:50.56 bitrate=N/A speed=  18x    frame=18686 fps=431 q=-0.0 size=N/A time=00:12:59.36 bitrate=N/A speed=  18x    frame=18888 fps=431 q=-0.0 size=N/A time=00:13:07.78 bitrate=N/A speed=  18x    frame=19098 fps=431 q=-0.0 size=N/A time=00:13:16.54 bitrate=N/A speed=  18x    frame=19321 fps=431 q=-0.0 size=N/A time=00:13:25.84 bitrate=N/A speed=  18x    frame=19534 fps=430 q=-0.0 size=N/A time=00:13:34.73 bitrate=N/A speed=17.9x    frame=19746 fps=430 q=-0.0 size=N/A time=00:13:43.57 bitrate=N/A speed=17.9x    frame=19956 fps=430 q=-0.0 size=N/A time=00:13:52.33 bitrate=N/A speed=17.9x    frame=20191 fps=430 q=-0.0 size=N/A time=00:14:02.13 bitrate=N/A speed=17.9x    frame=20434 fps=431 q=-0.0 size=N/A time=00:14:12.26 bitrate=N/A speed=  18x    frame=20656 fps=431 q=-0.0 size=N/A time=00:14:21.52 bitrate=N/A speed=  18x    frame=20875 fps=430 q=-0.0 size=N/A time=00:14:30.66 bitrate=N/A speed=  18x    frame=21087 fps=430 q=-0.0 size=N/A time=00:14:39.50 bitrate=N/A speed=17.9x    frame=21288 fps=430 q=-0.0 size=N/A time=00:14:47.88 bitrate=N/A speed=17.9x    frame=21501 fps=430 q=-0.0 size=N/A time=00:14:56.77 bitrate=N/A speed=17.9x    frame=21732 fps=430 q=-0.0 size=N/A time=00:15:06.40 bitrate=N/A speed=17.9x    frame=21982 fps=430 q=-0.0 size=N/A time=00:15:16.83 bitrate=N/A speed=  18x    frame=22216 fps=431 q=-0.0 size=N/A time=00:15:26.59 bitrate=N/A speed=  18x    frame=22454 fps=431 q=-0.0 size=N/A time=00:15:36.51 bitrate=N/A speed=  18x    frame=22716 fps=432 q=-0.0 size=N/A time=00:15:47.44 bitrate=N/A speed=  18x    frame=22975 fps=432 q=-0.0 size=N/A time=00:15:58.24 bitrate=N/A speed=  18x    frame=23191 fps=432 q=-0.0 size=N/A time=00:16:07.25 bitrate=N/A speed=  18x    frame=23432 fps=433 q=-0.0 size=N/A time=00:16:17.30 bitrate=N/A speed=  18x    frame=23661 fps=433 q=-0.0 size=N/A time=00:16:26.86 bitrate=N/A speed=  18x    frame=23916 fps=433 q=-0.0 size=N/A time=00:16:37.49 bitrate=N/A speed=18.1x    frame=24150 fps=434 q=-0.0 size=N/A time=00:16:47.25 bitrate=N/A speed=18.1x    frame=24398 fps=434 q=-0.0 size=N/A time=00:16:57.59 bitrate=N/A speed=18.1x    frame=24642 fps=434 q=-0.0 size=N/A time=00:17:07.77 bitrate=N/A speed=18.1x    frame=24830 fps=434 q=-0.0 size=N/A time=00:17:15.61 bitrate=N/A speed=18.1x    frame=25034 fps=433 q=-0.0 size=N/A time=00:17:24.12 bitrate=N/A speed=18.1x    frame=25252 fps=433 q=-0.0 size=N/A time=00:17:33.21 bitrate=N/A speed=18.1x    frame=25502 fps=434 q=-0.0 size=N/A time=00:17:43.64 bitrate=N/A speed=18.1x    frame=25742 fps=434 q=-0.0 size=N/A time=00:17:53.65 bitrate=N/A speed=18.1x    frame=26009 fps=435 q=-0.0 size=N/A time=00:18:04.79 bitrate=N/A speed=18.1x    frame=26248 fps=435 q=-0.0 size=N/A time=00:18:14.76 bitrate=N/A speed=18.1x    frame=26515 fps=436 q=-0.0 size=N/A time=00:18:25.89 bitrate=N/A speed=18.2x    frame=26760 fps=436 q=-0.0 size=N/A time=00:18:36.11 bitrate=N/A speed=18.2x    frame=26991 fps=436 q=-0.0 size=N/A time=00:18:45.74 bitrate=N/A speed=18.2x    frame=27258 fps=437 q=-0.0 size=N/A time=00:18:56.88 bitrate=N/A speed=18.2x    frame=27510 fps=437 q=-0.0 size=N/A time=00:19:07.39 bitrate=N/A speed=18.2x    frame=27762 fps=438 q=-0.0 size=N/A time=00:19:17.90 bitrate=N/A speed=18.3x    frame=28012 fps=438 q=-0.0 size=N/A time=00:19:28.33 bitrate=N/A speed=18.3x    frame=28274 fps=439 q=-0.0 size=N/A time=00:19:39.26 bitrate=N/A speed=18.3x    frame=28518 fps=439 q=-0.0 size=N/A time=00:19:49.43 bitrate=N/A speed=18.3x    frame=28745 fps=439 q=-0.0 size=N/A time=00:19:58.90 bitrate=N/A speed=18.3x    frame=29024 fps=440 q=-0.0 size=N/A time=00:20:10.54 bitrate=N/A speed=18.3x    frame=29247 fps=440 q=-0.0 size=N/A time=00:20:19.84 bitrate=N/A speed=18.3x    frame=29484 fps=440 q=-0.0 size=N/A time=00:20:29.72 bitrate=N/A speed=18.3x    frame=29735 fps=440 q=-0.0 size=N/A time=00:20:40.19 bitrate=N/A speed=18.4x    frame=30004 fps=441 q=-0.0 size=N/A time=00:20:51.41 bitrate=N/A speed=18.4x    frame=30261 fps=441 q=-0.0 size=N/A time=00:21:02.13 bitrate=N/A speed=18.4x    frame=30505 fps=441 q=-0.0 size=N/A time=00:21:12.31 bitrate=N/A speed=18.4x    frame=30735 fps=441 q=-0.0 size=N/A time=00:21:21.90 bitrate=N/A speed=18.4x    frame=30985 fps=442 q=-0.0 size=N/A time=00:21:32.33 bitrate=N/A speed=18.4x    frame=31247 fps=442 q=-0.0 size=N/A time=00:21:43.26 bitrate=N/A speed=18.4x    frame=31495 fps=443 q=-0.0 size=N/A time=00:21:53.60 bitrate=N/A speed=18.5x    frame=31753 fps=443 q=-0.0 size=N/A time=00:22:04.36 bitrate=N/A speed=18.5x    frame=32013 fps=443 q=-0.0 size=N/A time=00:22:15.20 bitrate=N/A speed=18.5x    frame=32255 fps=444 q=-0.0 size=N/A time=00:22:25.30 bitrate=N/A speed=18.5x    frame=32468 fps=443 q=-0.0 size=N/A time=00:22:34.18 bitrate=N/A speed=18.5x    frame=32682 fps=443 q=-0.0 size=N/A time=00:22:43.11 bitrate=N/A speed=18.5x    frame=32889 fps=443 q=-0.0 size=N/A time=00:22:51.74 bitrate=N/A speed=18.5x    frame=33091 fps=443 q=-0.0 size=N/A time=00:23:00.17 bitrate=N/A speed=18.5x    frame=33299 fps=442 q=-0.0 size=N/A time=00:23:08.84 bitrate=N/A speed=18.4x    frame=33542 fps=442 q=-0.0 size=N/A time=00:23:18.98 bitrate=N/A speed=18.5x    frame=33748 fps=442 q=-0.0 size=N/A time=00:23:27.57 bitrate=N/A speed=18.4x    frame=33963 fps=442 q=-0.0 size=N/A time=00:23:36.54 bitrate=N/A speed=18.4x    frame=34195 fps=442 q=-0.0 size=N/A time=00:23:46.21 bitrate=N/A speed=18.4x    frame=34423 fps=442 q=-0.0 size=N/A time=00:23:55.72 bitrate=N/A speed=18.4x    [Parsed_ssim_10 @ 000001f34d35dec0] SSIM Y:0.994455 (22.561177) U:0.994592 (22.669488) V:0.994165 (22.339943) All:0.994430 (22.541224)
[out#0/null @ 000001f346804ac0] video:14828KiB audio:269880KiB subtitle:0KiB other streams:0KiB global headers:0KiB muxing overhead: unknown
frame=34509 fps=442 q=-0.0 Lsize=N/A time=00:23:59.31 bitrate=N/A speed=18.4x    
